<svg width="24" height="25" viewBox="0 0 24 25" fill="none" xmlns="http://www.w3.org/2000/svg">
<g clip-path="url(#clip0_304_1863)">
<path fill-rule="evenodd" clip-rule="evenodd" d="M10.7501 2.95501C11.1022 2.75162 11.4987 2.63722 11.905 2.62171C12.3114 2.6062 12.7154 2.69006 13.0821 2.86601L13.2501 2.95501L19.5441 6.58801C19.898 6.7923 20.1965 7.08025 20.4134 7.42666C20.6303 7.77306 20.7589 8.16736 20.7881 8.57501L20.7941 8.75301V16.021C20.794 16.4296 20.6937 16.8319 20.5021 17.1928C20.3106 17.5536 20.0334 17.862 19.6951 18.091L19.5451 18.186L13.2501 21.82C12.8979 22.0234 12.5014 22.1378 12.0951 22.1533C11.6887 22.1688 11.2847 22.085 10.9181 21.909L10.7501 21.819L4.45605 18.188C4.10208 17.9837 3.80359 17.6958 3.58671 17.3494C3.36984 17.003 3.2412 16.6087 3.21205 16.201L3.20605 16.023V8.75401C3.20626 8.34535 3.30663 7.94297 3.4984 7.58209C3.69017 7.22122 3.96748 6.91286 4.30605 6.68401L4.45605 6.58901L10.7501 2.95501ZM12.2501 4.68701C12.187 4.65063 12.1167 4.62847 12.0441 4.62207C11.9716 4.61568 11.8985 4.62522 11.8301 4.65001L11.7501 4.68701L5.45605 8.32101C5.39304 8.35744 5.33873 8.40718 5.29693 8.46677C5.25513 8.52636 5.22685 8.59436 5.21405 8.66601L5.20605 8.75401V16.022C5.20613 16.0948 5.2221 16.1667 5.25284 16.2327C5.28359 16.2987 5.32837 16.3571 5.38405 16.404L5.45605 16.454L11.7501 20.089C11.8131 20.1254 11.8834 20.1476 11.956 20.1539C12.0285 20.1603 12.1016 20.1508 12.1701 20.126L12.2501 20.089L18.5441 16.455C18.6073 16.4187 18.6618 16.369 18.7037 16.3094C18.7457 16.2498 18.7741 16.1818 18.7871 16.11L18.7941 16.022V8.75401C18.7941 8.6813 18.7783 8.60945 18.7477 8.54347C18.7172 8.4775 18.6726 8.41898 18.6171 8.37201L18.5441 8.32101L12.2501 4.68701ZM12.0001 8.38801C13.0609 8.38801 14.0783 8.80944 14.8285 9.55958C15.5786 10.3097 16.0001 11.3271 16.0001 12.388C16.0001 13.4489 15.5786 14.4663 14.8285 15.2164C14.0783 15.9666 13.0609 16.388 12.0001 16.388C10.9392 16.388 9.92177 15.9666 9.17163 15.2164C8.42148 14.4663 8.00005 13.4489 8.00005 12.388C8.00005 11.3271 8.42148 10.3097 9.17163 9.55958C9.92177 8.80944 10.9392 8.38801 12.0001 8.38801ZM12.0001 10.388C11.4696 10.388 10.9609 10.5987 10.5858 10.9738C10.2108 11.3489 10.0001 11.8576 10.0001 12.388C10.0001 12.9184 10.2108 13.4272 10.5858 13.8022C10.9609 14.1773 11.4696 14.388 12.0001 14.388C12.5305 14.388 13.0392 14.1773 13.4143 13.8022C13.7893 13.4272 14.0001 12.9184 14.0001 12.388C14.0001 11.8576 13.7893 11.3489 13.4143 10.9738C13.0392 10.5987 12.5305 10.388 12.0001 10.388Z" fill="#6247D1"/>
</g>
<defs>
<clipPath id="clip0_304_1863">
<rect width="24" height="24" fill="white" transform="translate(0 0.388016)"/>
</clipPath>
</defs>
</svg>
