<svg width="19" height="19" viewBox="0 0 19 19" fill="none" xmlns="http://www.w3.org/2000/svg">
<path d="M11.5833 18.5885V16.4531C13.1458 16.0017 14.4045 15.1337 15.3594 13.849C16.3142 12.5642 16.7917 11.1059 16.7917 9.47396C16.7917 7.84201 16.3142 6.38368 15.3594 5.09896C14.4045 3.81424 13.1458 2.94618 11.5833 2.49479V0.359375C13.7361 0.845486 15.4896 1.93507 16.8437 3.62812C18.1979 5.32118 18.875 7.26979 18.875 9.47396C18.875 11.6788 18.1979 13.6278 16.8437 15.3208C15.4896 17.0139 13.7361 18.1031 11.5833 18.5885ZM0.125 12.625V6.375H4.29167L9.5 1.16667V17.8333L4.29167 12.625H0.125ZM11.5833 13.6667V5.28125C12.3993 5.66319 13.0375 6.23611 13.4979 7C13.9583 7.76389 14.1882 8.59722 14.1875 9.5C14.1875 10.3854 13.9573 11.2059 13.4969 11.9615C13.0365 12.717 12.3986 13.2854 11.5833 13.6667Z" fill="#6247D1"/>
</svg>
