<svg width="13" height="12" viewBox="0 0 13 12" fill="none" xmlns="http://www.w3.org/2000/svg">
<path opacity="0.7" d="M10.8563 11.8122L7.03272 7.98862C6.69132 8.26173 6.29872 8.47795 5.85491 8.63727C5.4111 8.79659 4.93883 8.87624 4.43812 8.87624C3.19772 8.87624 2.14805 8.44677 1.2891 7.58782C0.429701 6.72842 0 5.67852 0 4.43812C0 3.19772 0.429701 2.14782 1.2891 1.28842C2.14805 0.429474 3.19772 0 4.43812 0C5.67852 0 6.72842 0.429474 7.58782 1.28842C8.44677 2.14782 8.87625 3.19772 8.87625 4.43812C8.87625 4.93883 8.79659 5.41109 8.63727 5.85491C8.47795 6.29872 8.26174 6.69132 7.98862 7.03272L11.8293 10.8734C11.9545 10.9986 12.0171 11.1522 12.0171 11.3343C12.0171 11.5164 11.9488 11.6757 11.8122 11.8122C11.6871 11.9374 11.5277 12 11.3343 12C11.1408 12 10.9815 11.9374 10.8563 11.8122ZM4.43812 7.51067C5.29161 7.51067 6.01718 7.21206 6.61485 6.61485C7.21206 6.01718 7.51067 5.29161 7.51067 4.43812C7.51067 3.58464 7.21206 2.85906 6.61485 2.26139C6.01718 1.66418 5.29161 1.36558 4.43812 1.36558C3.58464 1.36558 2.85906 1.66418 2.26139 2.26139C1.66418 2.85906 1.36558 3.58464 1.36558 4.43812C1.36558 5.29161 1.66418 6.01718 2.26139 6.61485C2.85906 7.21206 3.58464 7.51067 4.43812 7.51067Z" fill="#EDEDED" fill-opacity="0.7"/>
</svg>
