<svg width="12" height="13" viewBox="0 0 12 13" fill="none" xmlns="http://www.w3.org/2000/svg">
<path d="M0 10.1403V12.1667C0 12.3534 0.146647 12.5 0.333288 12.5H2.35968C2.44633 12.5 2.53299 12.4667 2.59298 12.4L9.87199 5.12767L7.37233 2.62801L0.0999865 9.90035C0.0333289 9.96701 0 10.047 0 10.1403ZM11.8051 2.25472L10.2453 0.694936C10.1836 0.633142 10.1104 0.584117 10.0297 0.550667C9.94908 0.517218 9.86264 0.5 9.77534 0.5C9.68804 0.5 9.6016 0.517218 9.52096 0.550667C9.44032 0.584117 9.36707 0.633142 9.3054 0.694936L8.08557 1.91477L10.5852 4.41443L11.8051 3.1946C11.8669 3.13293 11.9159 3.05968 11.9493 2.97904C11.9828 2.8984 12 2.81196 12 2.72466C12 2.63736 11.9828 2.55092 11.9493 2.47028C11.9159 2.38964 11.8669 2.31639 11.8051 2.25472Z" fill="#EDEDED" fill-opacity="0.7"/>
</svg>
