<svg width="11" height="20" viewBox="0 0 11 20" fill="none" xmlns="http://www.w3.org/2000/svg">
<path opacity="0.6" d="M10.45 19.1125C10.7 18.8625 10.825 18.5665 10.825 18.2245C10.825 17.8831 10.7 17.5875 10.45 17.3375L3.12495 10.0125L10.475 2.66245C10.7083 2.42912 10.825 2.13745 10.825 1.78745C10.825 1.43745 10.7 1.13745 10.45 0.887451C10.2 0.637451 9.90395 0.512451 9.56195 0.512451C9.22062 0.512451 8.92495 0.637451 8.67495 0.887451L0.27495 9.31245C0.17495 9.41245 0.103951 9.52078 0.0619507 9.63745C0.0206175 9.75412 -4.95911e-05 9.87912 -4.95911e-05 10.0125C-4.95911e-05 10.1458 0.0206175 10.2708 0.0619507 10.3875C0.103951 10.5041 0.17495 10.6125 0.27495 10.7125L8.69995 19.1375C8.93328 19.3708 9.22062 19.4875 9.56195 19.4875C9.90395 19.4875 10.2 19.3625 10.45 19.1125Z" fill="#EDEDED"/>
</svg>
