<svg width="741" height="231" viewBox="0 0 741 231" fill="none" xmlns="http://www.w3.org/2000/svg">
<path d="M2 107.384H88.3423C88.6711 107.384 88.9616 107.17 89.0585 106.855L102.681 62.7026C102.904 61.9797 103.936 62.0048 104.124 62.7377L122.412 134.191C122.441 134.307 122.498 134.414 122.577 134.503L137.924 151.82C138.017 151.925 138.079 152.055 138.102 152.193L144.005 187.51C144.146 188.359 145.374 188.338 145.487 187.484L169.787 3.26796C169.903 2.39115 171.176 2.40293 171.275 3.28173L196.646 227.526C196.746 228.412 198.034 228.413 198.135 227.527L211.878 108.048C211.921 107.669 212.241 107.384 212.622 107.384H230.451C230.751 107.384 231.023 107.205 231.14 106.928L243.532 77.8789C243.79 77.2739 244.646 77.2709 244.909 77.874L257.547 106.933C257.666 107.207 257.936 107.384 258.235 107.384H738.79" stroke="#6247D1" stroke-width="4" stroke-linecap="round"/>
</svg>
