<svg width="17" height="16" viewBox="0 0 17 16" fill="none" xmlns="http://www.w3.org/2000/svg">
<path d="M14.4752 15.7496L9.37708 10.6515C8.92189 11.0156 8.39842 11.3039 7.80667 11.5164C7.21492 11.7288 6.58523 11.835 5.91762 11.835C4.26375 11.835 2.86419 11.2624 1.71893 10.1171C0.573057 8.97123 0.00012207 7.57136 0.00012207 5.9175C0.00012207 4.26363 0.573057 2.86377 1.71893 1.71789C2.86419 0.572632 4.26375 0 5.91762 0C7.57148 0 8.97135 0.572632 10.1172 1.71789C11.2625 2.86377 11.8351 4.26363 11.8351 5.9175C11.8351 6.58511 11.7289 7.21479 11.5165 7.80654C11.3041 8.39829 11.0158 8.92176 10.6516 9.37696L15.7725 14.4979C15.9394 14.6648 16.0229 14.8696 16.0229 15.1124C16.0229 15.3551 15.9318 15.5676 15.7498 15.7496C15.5829 15.9165 15.3704 16 15.1125 16C14.8546 16 14.6421 15.9165 14.4752 15.7496ZM5.91762 10.0142C7.0556 10.0142 8.02303 9.61608 8.81992 8.8198C9.61621 8.02291 10.0143 7.05548 10.0143 5.9175C10.0143 4.77952 9.61621 3.81208 8.81992 3.01519C8.02303 2.21891 7.0556 1.82077 5.91762 1.82077C4.77964 1.82077 3.8122 2.21891 3.01531 3.01519C2.21903 3.81208 1.82089 4.77952 1.82089 5.9175C1.82089 7.05548 2.21903 8.02291 3.01531 8.8198C3.8122 9.61608 4.77964 10.0142 5.91762 10.0142Z" fill="#EDEDED"/>
</svg>
