<svg width="17" height="16" viewBox="0 0 17 16" fill="none" xmlns="http://www.w3.org/2000/svg">
<path d="M15.4522 15.7496L10.354 10.6515C9.89882 11.0156 9.37534 11.3039 8.78359 11.5164C8.19184 11.7288 7.56216 11.835 6.89455 11.835C5.24068 11.835 3.84112 11.2624 2.69586 10.1171C1.54999 8.97123 0.977051 7.57136 0.977051 5.9175C0.977051 4.26363 1.54999 2.86377 2.69586 1.71789C3.84112 0.572632 5.24068 0 6.89455 0C8.54841 0 9.94828 0.572632 11.0941 1.71789C12.2394 2.86377 12.812 4.26363 12.812 5.9175C12.812 6.58511 12.7058 7.21479 12.4934 7.80654C12.281 8.39829 11.9927 8.92176 11.6285 9.37696L16.7495 14.4979C16.9164 14.6648 16.9998 14.8696 16.9998 15.1124C16.9998 15.3551 16.9088 15.5676 16.7267 15.7496C16.5598 15.9165 16.3474 16 16.0894 16C15.8315 16 15.6191 15.9165 15.4522 15.7496ZM6.89455 10.0142C8.03253 10.0142 8.99996 9.61608 9.79685 8.8198C10.5931 8.02291 10.9913 7.05548 10.9913 5.9175C10.9913 4.77952 10.5931 3.81208 9.79685 3.01519C8.99996 2.21891 8.03253 1.82077 6.89455 1.82077C5.75657 1.82077 4.78913 2.21891 3.99224 3.01519C3.19596 3.81208 2.79782 4.77952 2.79782 5.9175C2.79782 7.05548 3.19596 8.02291 3.99224 8.8198C4.78913 9.61608 5.75657 10.0142 6.89455 10.0142Z" fill="#EDEDED"/>
</svg>
