<svg width="32" height="32" viewBox="0 0 32 32" fill="none" xmlns="http://www.w3.org/2000/svg">
<g clip-path="url(#clip0_133_1481)">
<path d="M16 32C24.8366 32 32 24.8366 32 16C32 7.16344 24.8366 0 16 0C7.16344 0 0 7.16344 0 16C0 24.8366 7.16344 32 16 32Z" fill="url(#paint0_linear_133_1481)"/>
<path fill-rule="evenodd" clip-rule="evenodd" d="M7.24251 15.8311C11.9068 13.7989 15.0171 12.4592 16.5734 11.8119C21.0167 9.96372 21.94 9.64267 22.5418 9.63207C22.6742 9.62974 22.9701 9.66254 23.1618 9.81809C23.3237 9.94944 23.3682 10.1269 23.3895 10.2514C23.4108 10.3759 23.4374 10.6596 23.4163 10.8813C23.1755 13.4112 22.1336 19.5508 21.6036 22.3844C21.3793 23.5835 20.9376 23.9855 20.5101 24.0248C19.581 24.1103 18.8754 23.4108 17.9755 22.8209C16.5673 21.8978 15.7717 21.3231 14.4048 20.4224C12.8251 19.3814 13.8492 18.8092 14.7494 17.8742C14.985 17.6294 19.0789 13.9058 19.1581 13.568C19.168 13.5257 19.1772 13.3682 19.0837 13.2851C18.9901 13.2019 18.852 13.2304 18.7524 13.253C18.6112 13.285 16.3615 14.772 12.0035 17.7138C11.365 18.1522 10.7866 18.3659 10.2684 18.3547C9.69709 18.3423 8.59817 18.0317 7.78124 17.7661C6.77924 17.4404 5.98287 17.2682 6.05221 16.715C6.08833 16.4269 6.4851 16.1323 7.24251 15.8311Z" fill="white"/>
</g>
<defs>
<linearGradient id="paint0_linear_133_1481" x1="16" y1="0" x2="16" y2="31.7627" gradientUnits="userSpaceOnUse">
<stop stop-color="#2AABEE"/>
<stop offset="1" stop-color="#229ED9"/>
</linearGradient>
<clipPath id="clip0_133_1481">
<rect width="32" height="32" fill="white"/>
</clipPath>
</defs>
</svg>
