<svg width="225" height="89" viewBox="0 0 225 89" fill="none" xmlns="http://www.w3.org/2000/svg">
<path d="M44.3196 87.1634C41.5582 87.1634 39.3196 84.9246 39.3196 82.1632C39.3196 79.9094 39.3196 77.7245 39.3196 75.6086C39.3196 72.1175 39.3196 68.082 39.3196 63.5019C39.3196 63.0931 39.3698 62.6855 39.4689 62.2889L39.785 61.0247C39.8841 60.6281 39.9343 60.2208 39.9343 59.812V35.4127C39.9343 31.1513 39.9343 26.9105 39.9343 22.6901C39.9343 19.2336 39.9343 15.7637 39.9343 12.2802C39.9343 10.8299 40.8733 9.5465 42.2557 9.10766V9.10766C45.2816 8.14706 47.7988 11.5593 45.9763 14.1588C45.6619 14.6073 45.3483 15.0541 45.0356 15.4991C42.9459 18.4902 40.8152 21.4813 38.6436 24.4725L24.7532 44.2017C22.8684 46.865 21.0041 49.5079 19.1602 52.1302C17.9935 53.8008 16.8095 55.4972 15.6084 57.2193C14.9277 58.1953 13.3998 57.7988 13.2799 56.6149V56.6149C13.2034 55.8594 13.7965 55.2033 14.5558 55.2033H43.3761L45.2814 54.9575C47.617 54.9575 50.1984 54.9575 53.0256 54.9575C55.8528 54.9575 58.6391 54.9575 61.3844 54.9575C62.2047 54.9575 62.9965 54.9575 63.76 54.9575C66.5214 54.9575 68.7598 57.196 68.7598 59.9575V63.8478C68.7598 66.6092 66.5214 68.8478 63.76 68.8478C62.9965 68.8478 62.2047 68.8478 61.3844 68.8478C58.6391 68.8478 55.8528 68.8478 53.0256 68.8478C50.1984 68.8478 47.617 68.8478 45.2814 68.8478H5.29151C2.53009 68.8478 0.291504 66.6092 0.291504 63.8478V59.6193C0.291504 58.5856 0.611984 57.5775 1.20788 56.7329C2.63572 54.7089 4.17411 52.5191 5.82305 50.1634C7.8308 47.2952 9.85903 44.4065 11.9078 41.4974C13.9975 38.5882 15.9232 35.9044 17.6851 33.4459L28.1336 18.6951C30.0184 16.0318 31.9033 13.3684 33.7881 10.7051C35.1748 8.74556 36.5616 6.77495 37.9483 4.79324C38.8858 3.45352 40.4172 2.6536 42.0523 2.6536H50.3611C53.1226 2.6536 55.3611 4.89223 55.3611 7.65366C55.3611 11.0227 55.3611 14.3549 55.3611 17.6502C55.3611 22.5262 55.3611 27.4022 55.3611 32.2781V62.886C55.3611 67.721 55.3611 71.9618 55.3611 75.6086C55.3611 77.7245 55.3611 79.9094 55.3611 82.1632C55.3611 84.9246 53.1226 87.1634 50.3611 87.1634H44.3196Z" fill="#6247D1"/>
<path d="M112.935 88.6384C106.707 88.6384 101.36 87.5321 96.8938 85.3195C92.4686 83.1069 88.8424 80.0133 86.0151 76.0388C83.2289 72.0643 81.1597 67.4342 79.8075 62.1485C78.4963 56.8218 77.8407 51.0649 77.8407 44.8778C77.8407 36.2321 79.0904 28.6109 81.5899 22.014C84.0893 15.4171 87.8999 10.2748 93.0218 6.58715C98.1436 2.85848 104.638 0.994141 112.505 0.994141C118.487 0.994141 123.671 2.05948 128.055 4.19015C132.439 6.32081 136.065 9.33243 138.934 13.225C141.802 17.1176 143.932 21.7477 145.326 27.1153C146.719 32.483 147.415 38.3833 147.415 44.8163C147.415 53.6668 146.125 61.3904 143.543 67.9873C141.003 74.5432 137.172 79.6241 132.05 83.2298C126.928 86.8356 120.557 88.6384 112.935 88.6384ZM112.689 75.0554C117.074 75.0554 120.577 73.7442 123.199 71.1219C125.863 68.4995 127.789 64.9142 128.977 60.3661C130.206 55.8179 130.821 50.6347 130.821 44.8163C130.821 38.6701 130.165 33.3434 128.854 28.8363C127.584 24.3291 125.617 20.8463 122.954 18.3878C120.29 15.8883 116.869 14.6386 112.689 14.6386C108.428 14.6386 104.945 15.9293 102.241 18.5107C99.5777 21.0511 97.6109 24.5954 96.3407 29.1436C95.1114 33.6508 94.4968 38.875 94.4968 44.8163C94.4968 50.7166 95.091 55.9408 96.2792 60.489C97.4675 65.0372 99.3933 68.6019 102.057 71.1833C104.761 73.7647 108.305 75.0554 112.689 75.0554Z" fill="#6247D1"/>
<path d="M200.375 87.1634C197.613 87.1634 195.375 84.9246 195.375 82.1632C195.375 79.9094 195.375 77.7245 195.375 75.6086C195.375 72.1175 195.375 68.082 195.375 63.5019C195.375 63.0931 195.425 62.6855 195.524 62.2889L195.84 61.0247C195.939 60.6281 195.989 60.2208 195.989 59.812V35.4127C195.989 31.1513 195.989 26.9105 195.989 22.6901C195.989 19.2336 195.989 15.7637 195.989 12.2802C195.989 10.8299 196.928 9.5465 198.311 9.10766V9.10766C201.337 8.14706 203.854 11.5593 202.031 14.1588C201.717 14.6073 201.403 15.0541 201.091 15.4991C199.001 18.4902 196.87 21.4813 194.699 24.4725L180.808 44.2017C178.923 46.865 177.059 49.5079 175.215 52.1302C174.048 53.8008 172.864 55.4972 171.663 57.2193C170.983 58.1953 169.455 57.7989 169.335 56.6149V56.6149C169.258 55.8594 169.851 55.2033 170.611 55.2033H199.431L201.336 54.9575C203.672 54.9575 206.253 54.9575 209.081 54.9575C211.908 54.9575 214.694 54.9575 217.439 54.9575C218.26 54.9575 219.051 54.9575 219.815 54.9575C222.576 54.9575 224.815 57.196 224.815 59.9575V63.8478C224.815 66.6092 222.576 68.8478 219.815 68.8478C219.051 68.8478 218.26 68.8478 217.439 68.8478C214.694 68.8478 211.908 68.8478 209.081 68.8478C206.253 68.8478 203.672 68.8478 201.336 68.8478H161.346C158.585 68.8478 156.346 66.6092 156.346 63.8478V59.6193C156.346 58.5856 156.667 57.5775 157.263 56.7329C158.691 54.7089 160.229 52.5191 161.878 50.1634C163.886 47.2952 165.914 44.4065 167.963 41.4974C170.052 38.5882 171.978 35.9044 173.74 33.4459L184.189 18.6951C186.073 16.0318 187.958 13.3684 189.843 10.7051C191.23 8.74556 192.617 6.77495 194.003 4.79324C194.941 3.45352 196.472 2.6536 198.107 2.6536H206.416C209.178 2.6536 211.416 4.89223 211.416 7.65366C211.416 11.0227 211.416 14.3549 211.416 17.6502C211.416 22.5262 211.416 27.4022 211.416 32.2781V62.886C211.416 67.721 211.416 71.9618 211.416 75.6086C211.416 77.7245 211.416 79.9094 211.416 82.1632C211.416 84.9246 209.178 87.1634 206.416 87.1634H200.375Z" fill="#6247D1"/>
</svg>
