<svg width="19" height="24" viewBox="0 0 19 24" fill="none" xmlns="http://www.w3.org/2000/svg">
<path d="M13.971 10.0153C14.046 6.24339 8.3166 6.76177 9.78988 0.200195C9.78988 0.200195 5.94297 1.71441 6.61823 6.35935C6.85013 7.95541 6.29083 9.14904 6.29083 9.14904C5.72471 9.26499 4.84483 8.13957 5.15176 6.40027C5.15176 6.40027 3.13282 7.90766 3.13282 9.84476C3.13282 11.7819 4.06726 13.8349 4.06726 13.8349C1.74138 13.3302 1.97329 10.1926 1.97329 10.1926C1.97329 10.1926 0.5 12.1638 0.5 15.8811C0.5 18.7731 3.76033 23.3908 9.01914 23.3908C14.2779 23.3908 18.5 19.312 18.5 15.6833C18.5 14.0941 17.9612 12.041 16.7948 10.9224C16.7948 10.9224 16.9517 14.0941 15.3829 13.944C15.3829 13.944 16.6789 9.80383 15.3215 7.90766C15.3215 7.90766 14.6667 9.95389 13.971 10.0153Z" fill="url(#paint0_linear_111_633)"/>
<path d="M13.9778 7.17114C15.5057 4.35417 11.7202 3.96538 11.7133 2.23291C11.7133 2.23291 11.0449 4.01995 12.641 5.24087C13.9437 6.22988 13.9778 7.17114 13.9778 7.17114Z" fill="url(#paint1_linear_111_633)"/>
<path d="M5.94291 1.78271C5.36315 2.35566 6.16118 4.72247 4.34685 5.65691C4.34685 5.65691 3.73298 3.0582 5.94291 1.78271Z" fill="url(#paint2_linear_111_633)"/>
<path opacity="0.5" d="M1.69363 11.141C1.1889 12.0072 0.5 13.6101 0.5 15.8814C0.5 18.4188 3.73304 23.0842 9.01914 23.0842C14.1825 23.0842 18.1931 19.1077 18.1931 15.6905C18.1931 14.4559 17.852 12.8803 17.0949 11.7617C17.0404 12.4642 16.8698 13.4191 16.3446 13.9171C16.0718 14.1762 15.7308 14.2922 15.3556 14.2513L14.9737 14.2172L15.0896 13.8557C15.1033 13.8216 16.0923 10.5885 15.3761 8.67188C15.0896 9.37442 14.5985 10.2816 13.9983 10.3293L13.6573 10.3566L13.6641 10.0156C13.6914 8.60368 12.8251 7.85339 11.8225 6.98716C10.3901 5.74578 8.77359 4.3407 9.367 0.773438C8.37116 1.36002 6.43407 2.97654 6.91834 6.3119C7.16389 7.98299 6.58412 9.22437 6.56366 9.27893L6.49545 9.42217L6.3454 9.44945C6.05892 9.50402 5.75881 9.38806 5.48598 9.12888C5.11766 8.76737 4.78344 8.0853 4.7698 7.15767C4.2105 7.73062 3.43975 8.71963 3.43975 9.84506C3.43975 11.6935 4.34009 13.6851 4.34691 13.7056L4.59928 14.2649L3.99905 14.1353C2.43028 13.7943 1.84369 12.3346 1.69363 11.141Z" fill="url(#paint3_linear_111_633)"/>
<path d="M11.7135 2.23291C11.577 3.26285 11.9863 4.74295 12.6411 5.24087C13.2413 5.69786 13.9166 6.48225 13.9711 7.17114C14.9942 5.16584 13.5551 4.42238 12.7297 4.12908C12.3819 4.00631 11.7407 3.29013 11.7135 2.23291Z" fill="url(#paint4_radial_111_633)"/>
<path d="M8.56901 1.93945C6.30452 5.48625 9.24427 9.23085 7.73006 11.4749C6.21585 13.7189 4.68118 11.6454 4.57886 10.2403C4.57886 10.2403 4.59251 14.783 6.83654 16.5768C9.08057 18.3707 2.51899 17.9819 1.61865 15.7924C1.61865 15.7924 1.61865 23.0838 9.01918 23.0838C16.4197 23.0838 17.6543 16.2972 17.6543 16.2972C17.6543 16.2972 14.9601 18.5958 13.1662 16.8019C13.1662 16.8019 14.5099 14.4487 14.8509 12.0342C14.8509 12.0342 13.9233 12.6208 12.4978 12.3957C12.4978 12.3957 13.289 9.00577 11.6725 7.89398C9.59895 6.46844 7.84601 3.0717 8.56901 1.93945Z" fill="url(#paint5_linear_111_633)"/>
<path d="M9.13495 6.11377C7.94813 7.67572 10.2604 11.6863 7.83218 13.2756C6.48849 14.1554 5.71774 13.0982 5.71774 13.0982C5.71774 13.0982 6.07924 14.7216 7.52525 16.1676C8.97125 17.6136 5.34942 19.5711 2.40967 17.0406C2.40967 17.0406 3.41914 23.1179 10.2604 22.0948C17.811 20.9694 17.2517 15.3559 17.2517 15.3559C17.2517 15.3559 15.2054 18.5753 12.293 17.0338C12.293 17.0338 14.1278 14.476 14.1278 13.0096C14.1278 13.0096 12.8864 13.7462 11.4677 13.0368C11.4677 13.0368 12.1429 9.62646 11.3381 9.11491C9.40778 7.88035 9.13495 6.11377 9.13495 6.11377Z" fill="url(#paint6_linear_111_633)"/>
<path opacity="0.5" d="M13.971 10.0153C14.046 6.24339 8.3166 6.76177 9.78988 0.200195C9.78988 0.200195 5.94297 1.71441 6.61823 6.35935C6.85013 7.95541 6.29083 9.14904 6.29083 9.14904C5.72471 9.26499 4.84483 8.13957 5.15176 6.40027C5.15176 6.40027 3.13282 7.90766 3.13282 9.84476C3.13282 11.7819 4.06726 13.8349 4.06726 13.8349C1.74138 13.3302 1.97329 10.1926 1.97329 10.1926C1.97329 10.1926 0.5 12.1638 0.5 15.8811C0.5 18.7731 3.76033 23.3908 9.01914 23.3908C14.2779 23.3908 18.5 19.312 18.5 15.6833C18.5 14.0941 17.9612 12.041 16.7948 10.9224C16.7948 10.9224 16.9517 14.0941 15.3829 13.944C15.3829 13.944 16.6789 9.80383 15.3215 7.90766C15.3215 7.90766 14.6667 9.95389 13.971 10.0153Z" fill="url(#paint7_radial_111_633)"/>
<path opacity="0.5" d="M13.971 10.0153C14.046 6.24339 8.3166 6.76177 9.78988 0.200195C9.78988 0.200195 5.94297 1.71441 6.61823 6.35935C6.85013 7.95541 6.29083 9.14904 6.29083 9.14904C5.72471 9.26499 4.84483 8.13957 5.15176 6.40027C5.15176 6.40027 3.13282 7.90766 3.13282 9.84476C3.13282 11.7819 4.06726 13.8349 4.06726 13.8349C1.74138 13.3302 1.97329 10.1926 1.97329 10.1926C1.97329 10.1926 0.5 12.1638 0.5 15.8811C0.5 18.7731 3.76033 23.3908 9.01914 23.3908C14.2779 23.3908 18.5 19.312 18.5 15.6833C18.5 14.0941 17.9612 12.041 16.7948 10.9224C16.7948 10.9224 16.9517 14.0941 15.3829 13.944C15.3829 13.944 16.6789 9.80383 15.3215 7.90766C15.3215 7.90766 14.6667 9.95389 13.971 10.0153Z" fill="url(#paint8_radial_111_633)"/>
<path d="M0.963867 14.2986C1.12074 18.1523 4.2924 22.77 9.2511 22.77C14.2098 22.77 16.6857 17.5385 16.8426 14.476C16.8426 14.476 15.915 16.2766 13.821 16.6381C11.727 16.9996 13.9642 13.0368 12.4978 10.6904C12.4978 10.6904 11.2018 14.7761 9.36023 14.9261C7.51862 15.0762 5.95667 12.2251 5.95667 10.6904C5.95667 10.6904 4.82442 13.4528 5.10407 15.6491C5.53378 18.9845 0.963867 14.2986 0.963867 14.2986Z" fill="url(#paint9_radial_111_633)"/>
<path opacity="0.5" d="M13.971 10.0153C14.046 6.24339 8.3166 6.76177 9.78988 0.200195C9.78988 0.200195 5.94297 1.71441 6.61823 6.35935C6.85013 7.95541 6.29083 9.14904 6.29083 9.14904C5.72471 9.26499 4.84483 8.13957 5.15176 6.40027C5.15176 6.40027 3.13282 7.90766 3.13282 9.84476C3.13282 11.7819 4.06726 13.8349 4.06726 13.8349C1.74138 13.3302 1.97329 10.1926 1.97329 10.1926C1.97329 10.1926 0.5 12.1638 0.5 15.8811C0.5 18.7731 3.76033 23.3908 9.01914 23.3908C14.2779 23.3908 18.5 19.312 18.5 15.6833C18.5 14.0941 17.9612 12.041 16.7948 10.9224C16.7948 10.9224 16.9517 14.0941 15.3829 13.944C15.3829 13.944 16.6789 9.80383 15.3215 7.90766C15.3215 7.90766 14.6667 9.95389 13.971 10.0153Z" fill="url(#paint10_radial_111_633)"/>
<path opacity="0.5" d="M13.9778 7.17114C15.5057 4.35417 11.7202 3.96538 11.7133 2.23291C11.7133 2.23291 11.0449 4.01995 12.641 5.24087C13.9437 6.22988 13.9778 7.17114 13.9778 7.17114Z" fill="url(#paint11_radial_111_633)"/>
<path d="M5.94291 1.78271C5.36997 2.35566 5.73829 4.16316 4.34685 5.65691C4.34685 5.65691 3.73298 3.0582 5.94291 1.78271Z" fill="url(#paint12_radial_111_633)"/>
<path opacity="0.5" d="M5.94291 1.78271C5.36315 2.35566 6.16118 4.72247 4.34685 5.65691C4.34685 5.65691 3.73298 3.0582 5.94291 1.78271Z" fill="url(#paint13_radial_111_633)"/>
<path opacity="0.5" d="M13.971 10.0153C14.046 6.24339 8.3166 6.76177 9.78988 0.200195C9.78988 0.200195 5.94297 1.71441 6.61823 6.35935C6.85013 7.95541 6.29083 9.14904 6.29083 9.14904C5.72471 9.26499 4.84483 8.13957 5.15176 6.40027C5.15176 6.40027 3.13282 7.90766 3.13282 9.84476C3.13282 11.7819 4.06726 13.8349 4.06726 13.8349C1.74138 13.3302 1.97329 10.1926 1.97329 10.1926C1.97329 10.1926 0.5 12.1638 0.5 15.8811C0.5 18.7731 3.76033 23.3908 9.01914 23.3908C14.2779 23.3908 18.5 19.312 18.5 15.6833C18.5 14.0941 17.9612 12.041 16.7948 10.9224C16.7948 10.9224 16.9517 14.0941 15.3829 13.944C15.3829 13.944 16.6789 9.80383 15.3215 7.90766C15.3215 7.90766 14.6667 9.95389 13.971 10.0153Z" fill="url(#paint14_radial_111_633)"/>
<path opacity="0.25" d="M13.971 10.0153C14.046 6.24339 8.3166 6.76177 9.78988 0.200195C9.78988 0.200195 5.94297 1.71441 6.61823 6.35935C6.85013 7.95541 6.29083 9.14904 6.29083 9.14904C5.72471 9.26499 4.84483 8.13957 5.15176 6.40027C5.15176 6.40027 3.13282 7.90766 3.13282 9.84476C3.13282 11.7819 4.06726 13.8349 4.06726 13.8349C1.74138 13.3302 1.97329 10.1926 1.97329 10.1926C1.97329 10.1926 0.5 12.1638 0.5 15.8811C0.5 18.7731 3.76033 23.3908 9.01914 23.3908C14.2779 23.3908 18.5 19.312 18.5 15.6833C18.5 14.0941 17.9612 12.041 16.7948 10.9224C16.7948 10.9224 16.9517 14.0941 15.3829 13.944C15.3829 13.944 16.6789 9.80383 15.3215 7.90766C15.3215 7.90766 14.6667 9.95389 13.971 10.0153Z" fill="url(#paint15_radial_111_633)"/>
<path opacity="0.25" d="M13.971 10.0153C14.046 6.24339 8.3166 6.76177 9.78988 0.200195C9.78988 0.200195 5.94297 1.71441 6.61823 6.35935C6.85013 7.95541 6.29083 9.14904 6.29083 9.14904C5.72471 9.26499 4.84483 8.13957 5.15176 6.40027C5.15176 6.40027 3.13282 7.90766 3.13282 9.84476C3.13282 11.7819 4.06726 13.8349 4.06726 13.8349C1.74138 13.3302 1.97329 10.1926 1.97329 10.1926C1.97329 10.1926 0.5 12.1638 0.5 15.8811C0.5 18.7731 3.76033 23.3908 9.01914 23.3908C14.2779 23.3908 18.5 19.312 18.5 15.6833C18.5 14.0941 17.9612 12.041 16.7948 10.9224C16.7948 10.9224 16.9517 14.0941 15.3829 13.944C15.3829 13.944 16.6789 9.80383 15.3215 7.90766C15.3215 7.90766 14.6667 9.95389 13.971 10.0153Z" fill="url(#paint16_radial_111_633)"/>
<path opacity="0.25" d="M13.971 10.0153C14.046 6.24339 8.3166 6.76177 9.78988 0.200195C9.78988 0.200195 5.94297 1.71441 6.61823 6.35935C6.85013 7.95541 6.29083 9.14904 6.29083 9.14904C5.72471 9.26499 4.84483 8.13957 5.15176 6.40027C5.15176 6.40027 3.13282 7.90766 3.13282 9.84476C3.13282 11.7819 4.06726 13.8349 4.06726 13.8349C1.74138 13.3302 1.97329 10.1926 1.97329 10.1926C1.97329 10.1926 0.5 12.1638 0.5 15.8811C0.5 18.7731 3.76033 23.3908 9.01914 23.3908C14.2779 23.3908 18.5 19.312 18.5 15.6833C18.5 14.0941 17.9612 12.041 16.7948 10.9224C16.7948 10.9224 16.9517 14.0941 15.3829 13.944C15.3829 13.944 16.6789 9.80383 15.3215 7.90766C15.3215 7.90766 14.6667 9.95389 13.971 10.0153Z" fill="url(#paint17_radial_111_633)"/>
<defs>
<linearGradient id="paint0_linear_111_633" x1="10.6535" y1="24.0318" x2="6.47219" y2="-6.26958" gradientUnits="userSpaceOnUse">
<stop stop-color="#FF0000"/>
<stop offset="0.2317" stop-color="#FF1500"/>
<stop offset="0.7367" stop-color="#FF3D00"/>
<stop offset="0.9987" stop-color="#FF4C00"/>
</linearGradient>
<linearGradient id="paint1_linear_111_633" x1="15.553" y1="23.3558" x2="11.3717" y2="-6.94554" gradientUnits="userSpaceOnUse">
<stop stop-color="#FF0000"/>
<stop offset="0.2317" stop-color="#FF1500"/>
<stop offset="0.7367" stop-color="#FF3D00"/>
<stop offset="0.9987" stop-color="#FF4C00"/>
</linearGradient>
<linearGradient id="paint2_linear_111_633" x1="7.9932" y1="24.399" x2="3.81193" y2="-5.9024" gradientUnits="userSpaceOnUse">
<stop stop-color="#FF0000"/>
<stop offset="0.2317" stop-color="#FF1500"/>
<stop offset="0.7367" stop-color="#FF3D00"/>
<stop offset="0.9987" stop-color="#FF4C00"/>
</linearGradient>
<linearGradient id="paint3_linear_111_633" x1="10.5408" y1="18.8706" x2="1.40393" y2="-7.22371" gradientUnits="userSpaceOnUse">
<stop stop-color="#FF8000"/>
<stop offset="0.6388" stop-color="#FF5B00"/>
<stop offset="0.9987" stop-color="#FF4C00"/>
</linearGradient>
<radialGradient id="paint4_radial_111_633" cx="0" cy="0" r="1" gradientUnits="userSpaceOnUse" gradientTransform="translate(14.4541 -2.36605) scale(12.1758 12.1758)">
<stop offset="0.00134333" stop-color="#FFED1C" stop-opacity="0.6"/>
<stop offset="0.9477" stop-color="#FFED1C" stop-opacity="0.0264782"/>
<stop offset="0.9914" stop-color="#FFED1C" stop-opacity="0"/>
</radialGradient>
<linearGradient id="paint5_linear_111_633" x1="6.99288" y1="1.45729" x2="10.2966" y2="19.9891" gradientUnits="userSpaceOnUse">
<stop stop-color="#FF8000"/>
<stop offset="0.022669" stop-color="#FE7F02" stop-opacity="0.9773"/>
<stop offset="0.6663" stop-color="#ED582A" stop-opacity="0.3337"/>
<stop offset="1" stop-color="#E74939" stop-opacity="0"/>
</linearGradient>
<linearGradient id="paint6_linear_111_633" x1="9.55817" y1="21.4829" x2="10.2722" y2="8.4707" gradientUnits="userSpaceOnUse">
<stop stop-color="#FFBC47"/>
<stop offset="0.1869" stop-color="#FFB137" stop-opacity="0.8131"/>
<stop offset="0.7223" stop-color="#FF940F" stop-opacity="0.2777"/>
<stop offset="1" stop-color="#FF8900" stop-opacity="0"/>
</linearGradient>
<radialGradient id="paint7_radial_111_633" cx="0" cy="0" r="1" gradientUnits="userSpaceOnUse" gradientTransform="translate(9.38079 17.9713) scale(9.41864 7.64605)">
<stop offset="0.00134333" stop-color="#FFBC47"/>
<stop offset="0.2941" stop-color="#FFBF4B" stop-opacity="0.7068"/>
<stop offset="0.5624" stop-color="#FEC656" stop-opacity="0.4382"/>
<stop offset="0.8201" stop-color="#FCD368" stop-opacity="0.1801"/>
<stop offset="1" stop-color="#FBE07A" stop-opacity="0"/>
</radialGradient>
<radialGradient id="paint8_radial_111_633" cx="0" cy="0" r="1" gradientUnits="userSpaceOnUse" gradientTransform="translate(9.38079 17.5842) scale(9.12841 7.41044)">
<stop offset="0.00134333" stop-color="white"/>
<stop offset="1" stop-color="white" stop-opacity="0"/>
</radialGradient>
<radialGradient id="paint9_radial_111_633" cx="0" cy="0" r="1" gradientUnits="userSpaceOnUse" gradientTransform="translate(5.37821 19.2678) scale(11.2136 13.056)">
<stop offset="0.00134333" stop-color="#FFED1C" stop-opacity="0.6"/>
<stop offset="0.9477" stop-color="#FFED1C" stop-opacity="0.0264782"/>
<stop offset="0.9914" stop-color="#FFED1C" stop-opacity="0"/>
</radialGradient>
<radialGradient id="paint10_radial_111_633" cx="0" cy="0" r="1" gradientUnits="userSpaceOnUse" gradientTransform="translate(9.3813 17.5832) rotate(92.8876) scale(3.54404 2.87689)">
<stop offset="0.00134333" stop-color="white"/>
<stop offset="1" stop-color="white" stop-opacity="0"/>
</radialGradient>
<radialGradient id="paint11_radial_111_633" cx="0" cy="0" r="1" gradientUnits="userSpaceOnUse" gradientTransform="translate(11.3403 2.22644) scale(4.02277 4.02277)">
<stop offset="0.00134333" stop-color="#FFED1C"/>
<stop offset="0.1997" stop-color="#FFEE2B" stop-opacity="0.8013"/>
<stop offset="0.5839" stop-color="#FFF254" stop-opacity="0.4167"/>
<stop offset="1" stop-color="#FFF686" stop-opacity="0"/>
</radialGradient>
<radialGradient id="paint12_radial_111_633" cx="0" cy="0" r="1" gradientUnits="userSpaceOnUse" gradientTransform="translate(4.70697 4.16214) rotate(-56.4116) scale(3.25852 0.740024)">
<stop offset="0.00134333" stop-color="#FFED1C" stop-opacity="0.6"/>
<stop offset="0.9477" stop-color="#FFED1C" stop-opacity="0.0264782"/>
<stop offset="0.9914" stop-color="#FFED1C" stop-opacity="0"/>
</radialGradient>
<radialGradient id="paint13_radial_111_633" cx="0" cy="0" r="1" gradientUnits="userSpaceOnUse" gradientTransform="translate(5.35228 1.60693) rotate(95.0573) scale(2.92795 1.17812)">
<stop offset="0.00134333" stop-color="#FFED1C"/>
<stop offset="0.1997" stop-color="#FFEE2B" stop-opacity="0.8013"/>
<stop offset="0.5839" stop-color="#FFF254" stop-opacity="0.4167"/>
<stop offset="1" stop-color="#FFF686" stop-opacity="0"/>
</radialGradient>
<radialGradient id="paint14_radial_111_633" cx="0" cy="0" r="1" gradientUnits="userSpaceOnUse" gradientTransform="translate(10.4465 1.7101) scale(12.5522)">
<stop offset="0.00134333" stop-color="#FF4C00"/>
<stop offset="0.135" stop-color="#FF5B0C" stop-opacity="0.8661"/>
<stop offset="0.3941" stop-color="#FF842C" stop-opacity="0.6067"/>
<stop offset="0.7491" stop-color="#FFC45F" stop-opacity="0.2512"/>
<stop offset="1" stop-color="#FFF686" stop-opacity="0"/>
</radialGradient>
<radialGradient id="paint15_radial_111_633" cx="0" cy="0" r="1" gradientUnits="userSpaceOnUse" gradientTransform="translate(16.1556 11.8794) scale(6.66252)">
<stop offset="0.00134333" stop-color="#FFED1C"/>
<stop offset="0.1997" stop-color="#FFEE2B" stop-opacity="0.8013"/>
<stop offset="0.5839" stop-color="#FFF254" stop-opacity="0.4167"/>
<stop offset="1" stop-color="#FFF686" stop-opacity="0"/>
</radialGradient>
<radialGradient id="paint16_radial_111_633" cx="0" cy="0" r="1" gradientUnits="userSpaceOnUse" gradientTransform="translate(2.51721 14.2539) scale(7.1014)">
<stop offset="0.00134333" stop-color="#FFED1C"/>
<stop offset="0.1997" stop-color="#FFEE2B" stop-opacity="0.8013"/>
<stop offset="0.5839" stop-color="#FFF254" stop-opacity="0.4167"/>
<stop offset="1" stop-color="#FFF686" stop-opacity="0"/>
</radialGradient>
<radialGradient id="paint17_radial_111_633" cx="0" cy="0" r="1" gradientUnits="userSpaceOnUse" gradientTransform="translate(9.27478 12.8186) rotate(86.1102) scale(12.1642 7.39458)">
<stop stop-color="#FF4C00" stop-opacity="0"/>
<stop offset="0.9874" stop-color="#FF4C00" stop-opacity="0.9888"/>
<stop offset="0.9987" stop-color="#FF4C00"/>
</radialGradient>
</defs>
</svg>
