<svg width="280" height="257" viewBox="0 0 280 257" fill="none" xmlns="http://www.w3.org/2000/svg">
<path d="M141.791 58.4941C148.734 51.225 156.433 44.2909 168.558 42.1897C222.026 32.9752 244.145 78.9734 235.376 113.285C223.474 159.134 171.571 200.159 145.791 217.994C145.143 218.457 143.201 219.133 142.406 219.191C141.611 219.249 140.816 219.088 140.107 218.725C139.398 218.361 138.802 217.81 138.385 217.131C137.969 216.452 137.747 215.671 137.744 214.874L137.893 196.816C137.893 195.168 138.435 193.594 139.422 192.324L152.772 175.016C153.666 173.88 154.202 172.504 154.31 171.063C154.418 169.621 154.095 168.18 153.381 166.923L135.383 136.994C134.602 135.606 133.792 134.494 133.292 131.994C133.498 130.415 133.292 129.494 134.292 127.494C134.292 127.494 136.311 124.657 137.792 122.994C139.077 121.551 141.292 119.494 141.292 119.494C141.366 119.42 142.217 118.591 142.292 118.494C142.363 118.403 143.21 117.576 143.292 117.494L153.792 104.994C155.395 102.975 153.99 99.5779 153.077 97.1054L141.791 67.4941C141.637 67.1379 140.289 62.3822 140.291 61.9941C140.291 60.8804 141.791 58.4941 141.791 58.4941Z" fill="#251468"/>
<path d="M128.935 187.408C127.96 188.709 127.431 190.29 127.428 191.915L127.279 214.747C127.275 215.534 127.054 216.304 126.641 216.973C130.792 215.994 125.639 218.184 124.938 218.541C124.237 218.897 123.452 219.054 122.668 218.994C121.883 218.934 121.131 218.659 120.493 218.2C94.7725 200.098 43.0941 158.866 31.4071 113.351C22.5861 78.9505 44.4603 32.8335 97.1782 41.996C110.083 44.2458 122.453 53.3415 127.955 61.8952C128.638 62.8753 129.915 66.3353 129.915 66.3353C129.952 66.4096 129.975 66.4616 129.99 66.521L130.064 66.7066L140.407 94.3501C141.305 96.83 140.927 99.607 139.271 101.634L134.593 107.574C134.514 107.657 134.44 107.744 134.37 107.834C134.296 107.923 134.222 108.02 134.148 108.094L121.473 121.31C119.208 123.716 118.755 127.25 120.337 130.102L139.872 165.705C140.578 166.967 140.897 168.409 140.792 169.852C140.686 171.294 140.16 172.674 139.278 173.82L128.935 187.408Z" fill="#311E7C"/>
<g filter="url(#filter0_d_40_1714)">
<path d="M138.429 185.593C137.453 186.893 136.925 188.474 136.922 190.1L136.773 212.932C136.768 213.718 136.548 214.488 136.135 215.157C135.722 215.826 135.132 216.369 134.432 216.725C133.731 217.082 132.945 217.239 132.161 217.178C131.377 217.118 130.625 216.844 129.987 216.384C104.266 198.282 52.5878 157.051 40.9007 111.535C32.0798 77.1348 53.954 31.0178 106.672 40.1803C119.577 42.4301 131.947 51.5258 137.449 60.0795C138.132 61.0596 139.409 64.5197 139.409 64.5197C139.446 64.5939 139.468 64.6459 139.483 64.7053L139.557 64.8909L149.901 92.5344C150.799 95.0144 150.42 97.7913 148.764 99.8184L144.087 105.758C144.008 105.841 143.934 105.928 143.864 106.018C143.79 106.107 143.715 106.204 143.641 106.278L130.967 119.495C128.702 121.9 128.249 125.435 129.831 128.286L149.366 163.889C150.071 165.152 150.391 166.594 150.285 168.036C150.18 169.478 149.654 170.858 148.772 172.005L138.429 185.593Z" fill="#6247D1"/>
</g>
<g filter="url(#filter1_d_40_1714)">
<path d="M143.689 56.4325C150.631 49.1634 159.935 42.5031 172.06 40.4018C225.528 31.1873 247.647 77.1855 238.878 111.497C226.976 157.346 173.894 198.771 148.114 216.606C147.466 217.069 146.703 217.345 145.908 217.403C145.113 217.461 144.318 217.3 143.609 216.937C142.9 216.573 142.304 216.022 141.888 215.343C141.471 214.664 141.249 213.883 141.246 213.086L141.395 195.029C141.395 193.38 141.937 191.806 142.924 190.536L156.274 173.229C157.168 172.093 157.704 170.716 157.812 169.275C157.921 167.833 157.597 166.392 156.883 165.135L137.742 130.676C136.96 129.288 136.649 127.684 136.855 126.105C137.062 124.525 137.774 123.055 138.885 121.914L144.454 116.145C144.528 116.071 144.602 115.974 144.677 115.877C144.748 115.787 144.825 115.7 144.907 115.618L155.435 102.579C157.039 100.56 157.492 97.7901 156.579 95.3175L143.006 59.4322C142.852 59.076 142.774 58.6917 142.776 58.3036C142.776 57.1899 143.689 56.4325 143.689 56.4325Z" fill="#6247D1"/>
</g>
<defs>
<filter id="filter0_d_40_1714" x="0" y="0" width="189.375" height="256.191" filterUnits="userSpaceOnUse" color-interpolation-filters="sRGB">
<feFlood flood-opacity="0" result="BackgroundImageFix"/>
<feColorMatrix in="SourceAlpha" type="matrix" values="0 0 0 0 0 0 0 0 0 0 0 0 0 0 0 0 0 0 127 0" result="hardAlpha"/>
<feOffset/>
<feGaussianBlur stdDeviation="19.5"/>
<feComposite in2="hardAlpha" operator="out"/>
<feColorMatrix type="matrix" values="0 0 0 0 0.435421 0 0 0 0 0.319375 0 0 0 0 0.9125 0 0 0 0.5 0"/>
<feBlend mode="normal" in2="BackgroundImageFix" result="effect1_dropShadow_40_1714"/>
<feBlend mode="normal" in="SourceGraphic" in2="effect1_dropShadow_40_1714" result="shape"/>
</filter>
<filter id="filter1_d_40_1714" x="97.7935" y="0.206299" width="181.951" height="256.208" filterUnits="userSpaceOnUse" color-interpolation-filters="sRGB">
<feFlood flood-opacity="0" result="BackgroundImageFix"/>
<feColorMatrix in="SourceAlpha" type="matrix" values="0 0 0 0 0 0 0 0 0 0 0 0 0 0 0 0 0 0 127 0" result="hardAlpha"/>
<feOffset/>
<feGaussianBlur stdDeviation="19.5"/>
<feComposite in2="hardAlpha" operator="out"/>
<feColorMatrix type="matrix" values="0 0 0 0 0.435421 0 0 0 0 0.319375 0 0 0 0 0.9125 0 0 0 0.5 0"/>
<feBlend mode="normal" in2="BackgroundImageFix" result="effect1_dropShadow_40_1714"/>
<feBlend mode="normal" in="SourceGraphic" in2="effect1_dropShadow_40_1714" result="shape"/>
</filter>
</defs>
</svg>
