<svg width="19" height="19" viewBox="0 0 19 19" fill="none" xmlns="http://www.w3.org/2000/svg">
<path d="M9.19995 18.2002C14.1705 18.2002 18.2 14.1708 18.2 9.2002C18.2 4.22963 14.1705 0.200195 9.19995 0.200195C4.22939 0.200195 0.199951 4.22963 0.199951 9.2002C0.199951 14.1708 4.22939 18.2002 9.19995 18.2002Z" fill="url(#paint0_radial_528_881)"/>
<path opacity="0.5" d="M9.19995 18.2002C14.1705 18.2002 18.2 14.1708 18.2 9.2002C18.2 4.22963 14.1705 0.200195 9.19995 0.200195C4.22939 0.200195 0.199951 4.22963 0.199951 9.2002C0.199951 14.1708 4.22939 18.2002 9.19995 18.2002Z" fill="url(#paint1_radial_528_881)"/>
<path d="M9.19995 18.2002C14.1705 18.2002 18.2 14.1708 18.2 9.2002C18.2 4.22963 14.1705 0.200195 9.19995 0.200195C4.22939 0.200195 0.199951 4.22963 0.199951 9.2002C0.199951 14.1708 4.22939 18.2002 9.19995 18.2002Z" fill="url(#paint2_radial_528_881)"/>
<path d="M9.19995 18.2002C14.1705 18.2002 18.2 14.1708 18.2 9.2002C18.2 4.22963 14.1705 0.200195 9.19995 0.200195C4.22939 0.200195 0.199951 4.22963 0.199951 9.2002C0.199951 14.1708 4.22939 18.2002 9.19995 18.2002Z" fill="url(#paint3_radial_528_881)"/>
<path d="M15.4044 12.1929C15.41 12.1422 15.4156 12.0916 15.4213 12.0466C15.41 11.8835 15.3088 11.7316 15.1456 11.6754C15.0613 11.6416 14.9713 11.6416 14.8813 11.6641C13.0419 12.176 11.1294 12.4404 9.20001 12.4404C7.27064 12.4404 5.35814 12.1816 3.51876 11.6641C3.43438 11.6416 3.33876 11.6416 3.25438 11.6754C3.09688 11.7372 2.99563 11.8779 2.97876 12.041C2.98438 12.0972 2.99001 12.1535 3.00126 12.2154L3.10251 12.6372C3.12501 12.716 3.15313 12.8004 3.18688 12.8904C3.81688 14.3641 5.45939 16.9572 9.20564 16.9572C12.9463 16.9572 14.5888 14.3585 15.2244 12.8847C15.2525 12.806 15.2806 12.7329 15.2975 12.6597L15.4044 12.1929Z" fill="url(#paint4_radial_528_881)"/>
<path d="M9.20003 16.5464C10.6513 16.5464 11.765 16.1302 12.6144 15.5396C11.6807 15.1064 10.5557 14.8252 9.20003 14.8252C7.84441 14.8252 6.71378 15.1064 5.78003 15.5452C6.63503 16.1358 7.74878 16.5464 9.20003 16.5464Z" fill="url(#paint5_radial_528_881)"/>
<path d="M15.2975 12.6429L15.3988 12.2097C15.41 12.1479 15.4156 12.0916 15.4156 12.041C15.4044 11.8779 15.2975 11.7372 15.14 11.6754C15.0556 11.6416 14.9656 11.6416 14.8756 11.6641C13.0363 12.176 11.1238 12.4404 9.19439 12.4404C7.26502 12.4404 5.35252 12.1816 3.51314 11.6641C3.42877 11.6416 3.33314 11.6416 3.24877 11.6754C3.09127 11.7372 2.99002 11.8779 2.97314 12.041C2.97877 12.0916 2.98439 12.1535 2.99002 12.2154L3.09127 12.6429C3.11377 12.7216 3.14189 12.806 3.17564 12.8904C3.42877 13.4866 3.85064 14.2629 4.50314 14.9772C3.89002 14.246 4.64377 13.8466 5.99939 14.0097C7.34939 14.1729 9.19439 14.1785 9.19439 14.1785C9.19439 14.1785 11.0394 14.1729 12.3894 14.0097C13.7394 13.8466 14.4988 14.2516 13.8856 14.9772C14.5438 14.2629 14.96 13.4866 15.2131 12.8904C15.2469 12.8004 15.275 12.7216 15.2975 12.6429Z" fill="url(#paint6_linear_528_881)"/>
<path d="M9.19989 12.851C7.25364 12.851 5.32989 12.5922 3.46802 12.0747L3.49052 12.3278C3.53552 12.8116 3.88989 13.211 4.36239 13.3178C5.94302 13.6666 7.56302 13.841 9.19427 13.841C10.9549 13.841 12.6986 13.6385 14.3974 13.2335C14.6505 13.1716 14.8361 12.9578 14.8643 12.6991L14.9261 12.0803C13.0699 12.5922 11.1461 12.851 9.19989 12.851Z" fill="url(#paint7_radial_528_881)"/>
<path d="M5.57751 3.99696C4.97001 4.27258 4.57064 4.82383 4.45814 5.43133C3.92376 5.11071 3.24876 5.04321 2.64126 5.31883C1.65689 5.76321 1.22376 6.92196 1.66814 7.90071C2.64689 10.0663 6.77564 10.5501 6.77564 10.5501C6.77564 10.5501 9.13814 7.13571 8.15939 4.96446C7.72064 3.99133 6.56189 3.55258 5.57751 3.99696Z" fill="url(#paint8_radial_528_881)"/>
<path opacity="0.5" d="M6.38743 3.82275C8.06368 4.9365 8.08618 7.37776 7.27056 8.44088C6.37056 9.61651 5.41993 9.68401 3.30493 9.48713C4.84056 10.3253 6.77556 10.5503 6.77556 10.5503C6.77556 10.5503 9.13806 7.13588 8.15931 4.96463C7.83868 4.25588 7.12993 3.82838 6.38743 3.82275Z" fill="url(#paint9_radial_528_881)"/>
<path opacity="0.5" d="M5.57751 3.99696C4.97001 4.27258 4.57064 4.82383 4.45814 5.43133C3.92376 5.11071 3.24876 5.04321 2.64126 5.31883C1.65689 5.76321 1.22376 6.92196 1.66814 7.90071C2.64689 10.0663 6.77564 10.5501 6.77564 10.5501C6.77564 10.5501 9.13814 7.13571 8.15939 4.96446C7.72064 3.99133 6.56189 3.55258 5.57751 3.99696Z" fill="url(#paint10_radial_528_881)"/>
<path opacity="0.5" d="M5.57751 3.99696C4.97001 4.27258 4.57064 4.82383 4.45814 5.43133C3.92376 5.11071 3.24876 5.04321 2.64126 5.31883C1.65689 5.76321 1.22376 6.92196 1.66814 7.90071C2.64689 10.0663 6.77564 10.5501 6.77564 10.5501C6.77564 10.5501 9.13814 7.13571 8.15939 4.96446C7.72064 3.99133 6.56189 3.55258 5.57751 3.99696Z" fill="url(#paint11_radial_528_881)"/>
<path opacity="0.24" d="M3.99691 5.58326C4.36253 5.92076 4.22753 6.66888 3.68753 7.25388C3.14753 7.83888 2.41628 8.03576 2.04503 7.69826C1.67941 7.36076 1.81441 6.61263 2.35441 6.02763C2.89441 5.44263 3.62566 5.24576 3.99691 5.58326Z" fill="url(#paint12_radial_528_881)"/>
<path opacity="0.24" d="M6.01636 4.26137C6.39324 4.4245 6.48886 5.04887 6.22449 5.65637C5.96011 6.25825 5.44261 6.61262 5.06011 6.4495C4.67761 6.28637 4.58761 5.662 4.85199 5.0545C5.11636 4.45262 5.63386 4.09825 6.01636 4.26137Z" fill="url(#paint13_radial_528_881)"/>
<path opacity="0.32" d="M5.82512 4.45824C6.85449 4.35699 8.30574 5.29074 7.60824 7.58574C7.19199 8.95824 6.47762 9.88074 5.18949 10.2295C6.08387 10.477 6.78137 10.5614 6.78137 10.5614C6.78137 10.5614 9.14387 7.14699 8.16512 4.97574C7.72074 3.99136 6.56199 3.55824 5.58324 4.00261C4.97574 4.27824 4.57637 4.82949 4.46387 5.43699C4.46387 5.43699 5.07137 4.53136 5.82512 4.45824Z" fill="url(#paint14_linear_528_881)"/>
<path d="M15.8938 5.31352C15.2863 5.0379 14.6056 5.1054 14.0769 5.43165C13.9644 4.81852 13.565 4.2729 12.9575 3.99727C11.9731 3.55852 10.82 3.99727 10.3756 4.98165C9.40251 7.14727 11.7819 10.556 11.7819 10.556C11.7819 10.556 15.905 10.061 16.8781 7.88977C17.3169 6.91102 16.8781 5.75227 15.8938 5.31352Z" fill="url(#paint15_radial_528_881)"/>
<path opacity="0.5" d="M16.5632 5.80273C16.8444 7.79398 15.0275 9.43086 13.6888 9.52648C12.2094 9.63336 11.5344 8.96398 10.2744 7.25398C10.6625 8.95836 11.7763 10.5615 11.7763 10.5615C11.7763 10.5615 15.8994 10.0665 16.8725 7.89523C17.1988 7.16961 17.0525 6.35961 16.5632 5.80273Z" fill="url(#paint16_radial_528_881)"/>
<path opacity="0.5" d="M15.8938 5.31352C15.2863 5.0379 14.6056 5.1054 14.0769 5.43165C13.9644 4.81852 13.565 4.2729 12.9575 3.99727C11.9731 3.55852 10.82 3.99727 10.3756 4.98165C9.40251 7.14727 11.7819 10.556 11.7819 10.556C11.7819 10.556 15.905 10.061 16.8781 7.88977C17.3169 6.91102 16.8781 5.75227 15.8938 5.31352Z" fill="url(#paint17_radial_528_881)"/>
<path opacity="0.5" d="M15.8938 5.31352C15.2863 5.0379 14.6056 5.1054 14.0769 5.43165C13.9644 4.81852 13.565 4.2729 12.9575 3.99727C11.9731 3.55852 10.82 3.99727 10.3756 4.98165C9.40251 7.14727 11.7819 10.556 11.7819 10.556C11.7819 10.556 15.905 10.061 16.8781 7.88977C17.3169 6.91102 16.8781 5.75227 15.8938 5.31352Z" fill="url(#paint18_radial_528_881)"/>
<path opacity="0.24" d="M13.6552 5.17841C13.6439 5.67904 12.9914 6.07279 12.1983 6.05591C11.4052 6.03904 10.7696 5.62279 10.7752 5.12216C10.7864 4.62154 11.4389 4.22779 12.2321 4.24466C13.0308 4.26154 13.6664 4.67779 13.6552 5.17841Z" fill="url(#paint19_radial_528_881)"/>
<path opacity="0.24" d="M15.9894 5.81412C16.1188 6.20787 15.7138 6.69162 15.0894 6.89412C14.4651 7.09662 13.8519 6.94475 13.7226 6.55099C13.5932 6.15724 13.9982 5.67349 14.6226 5.47099C15.2469 5.26287 15.8601 5.42037 15.9894 5.81412Z" fill="url(#paint20_radial_528_881)"/>
<path opacity="0.32" d="M15.7138 5.79683C16.4732 6.49996 16.7319 8.20433 14.555 9.20558C13.25 9.80183 12.0857 9.88058 10.9719 9.14933C11.3769 9.98183 11.7819 10.5612 11.7819 10.5612C11.7819 10.5612 15.9051 10.0662 16.8782 7.89496C17.3169 6.91058 16.8782 5.75746 15.8938 5.31308C15.2863 5.03746 14.6057 5.10496 14.0769 5.43121C14.0769 5.42558 15.1626 5.28496 15.7138 5.79683Z" fill="url(#paint21_linear_528_881)"/>
<defs>
<radialGradient id="paint0_radial_528_881" cx="0" cy="0" r="1" gradientUnits="userSpaceOnUse" gradientTransform="translate(7.42918 5.5528) scale(10.8573)">
<stop stop-color="#FFE030"/>
<stop offset="1" stop-color="#FFB92E"/>
</radialGradient>
<radialGradient id="paint1_radial_528_881" cx="0" cy="0" r="1" gradientUnits="userSpaceOnUse" gradientTransform="translate(7.42918 5.5528) scale(8.54195)">
<stop stop-color="#FFEA5F"/>
<stop offset="1" stop-color="#FFBC47" stop-opacity="0"/>
</radialGradient>
<radialGradient id="paint2_radial_528_881" cx="0" cy="0" r="1" gradientUnits="userSpaceOnUse" gradientTransform="translate(4.20372 9.27917) rotate(32.7366) scale(4.76513 3.47802)">
<stop stop-color="#EB672A" stop-opacity="0.5"/>
<stop offset="0.4286" stop-color="#DC641B" stop-opacity="0.2846"/>
<stop offset="0.995" stop-color="#C25E00" stop-opacity="0"/>
</radialGradient>
<radialGradient id="paint3_radial_528_881" cx="0" cy="0" r="1" gradientUnits="userSpaceOnUse" gradientTransform="translate(14.2015 9.27182) rotate(147.263) scale(4.76513 3.47802)">
<stop stop-color="#EB672A" stop-opacity="0.5"/>
<stop offset="0.4286" stop-color="#DC641B" stop-opacity="0.2846"/>
<stop offset="0.995" stop-color="#C25E00" stop-opacity="0"/>
</radialGradient>
<radialGradient id="paint4_radial_528_881" cx="0" cy="0" r="1" gradientUnits="userSpaceOnUse" gradientTransform="translate(9.19912 14.3039) scale(4.78209 4.78209)">
<stop offset="0.00132565" stop-color="#7A4400"/>
<stop offset="1" stop-color="#643800"/>
</radialGradient>
<radialGradient id="paint5_radial_528_881" cx="0" cy="0" r="1" gradientUnits="userSpaceOnUse" gradientTransform="translate(9.2685 15.8938) scale(3.80478 1.15041)">
<stop offset="0.2479" stop-color="#FF0000"/>
<stop offset="1" stop-color="#C20000"/>
</radialGradient>
<linearGradient id="paint6_linear_528_881" x1="15.3508" y1="13.3147" x2="3.12405" y2="13.3147" gradientUnits="userSpaceOnUse">
<stop offset="0.00132565" stop-color="#3C2200"/>
<stop offset="0.5" stop-color="#512D00"/>
<stop offset="1" stop-color="#3C2200"/>
</linearGradient>
<radialGradient id="paint7_radial_528_881" cx="0" cy="0" r="1" gradientUnits="userSpaceOnUse" gradientTransform="translate(9.19938 12.9573) scale(10.4885 10.4885)">
<stop offset="0.00132565" stop-color="white"/>
<stop offset="1" stop-color="#A9BCBE"/>
</radialGradient>
<radialGradient id="paint8_radial_528_881" cx="0" cy="0" r="1" gradientUnits="userSpaceOnUse" gradientTransform="translate(3.93069 6.71491) rotate(-53.7393) scale(5.5741 4.42107)">
<stop offset="0.2479" stop-color="#FF0000"/>
<stop offset="0.8639" stop-color="#C20000"/>
</radialGradient>
<radialGradient id="paint9_radial_528_881" cx="0" cy="0" r="1" gradientUnits="userSpaceOnUse" gradientTransform="translate(3.91536 6.34677) rotate(-53.7394) scale(4.79911 3.80639)">
<stop offset="0.2479" stop-color="#FF0000"/>
<stop offset="1" stop-color="#C20000"/>
</radialGradient>
<radialGradient id="paint10_radial_528_881" cx="0" cy="0" r="1" gradientUnits="userSpaceOnUse" gradientTransform="translate(3.93069 6.71491) rotate(-53.7393) scale(5.5741 4.42107)">
<stop stop-color="white" stop-opacity="0.25"/>
<stop offset="1" stop-color="white" stop-opacity="0"/>
</radialGradient>
<radialGradient id="paint11_radial_528_881" cx="0" cy="0" r="1" gradientUnits="userSpaceOnUse" gradientTransform="translate(6.53337 7.62521) rotate(-50.6229) scale(4.06863 2.01019)">
<stop stop-color="#BD2719" stop-opacity="0.25"/>
<stop offset="1" stop-color="#BD2719" stop-opacity="0"/>
</radialGradient>
<radialGradient id="paint12_radial_528_881" cx="0" cy="0" r="1" gradientUnits="userSpaceOnUse" gradientTransform="translate(3.02033 6.64957) rotate(-46.0208) scale(1.44632 0.898448)">
<stop stop-color="white"/>
<stop offset="1" stop-color="white" stop-opacity="0"/>
</radialGradient>
<radialGradient id="paint13_radial_528_881" cx="0" cy="0" r="1" gradientUnits="userSpaceOnUse" gradientTransform="translate(5.53779 5.36184) rotate(-65.0908) scale(1.19746 0.743896)">
<stop stop-color="white"/>
<stop offset="1" stop-color="white" stop-opacity="0"/>
</radialGradient>
<linearGradient id="paint14_linear_528_881" x1="8.49758" y1="12.5697" x2="5.29251" y2="3.80614" gradientUnits="userSpaceOnUse">
<stop stop-color="#860805"/>
<stop offset="1" stop-color="#BD2719" stop-opacity="0"/>
</linearGradient>
<radialGradient id="paint15_radial_528_881" cx="0" cy="0" r="1" gradientUnits="userSpaceOnUse" gradientTransform="translate(12.7536 5.87855) rotate(-5.26571) scale(5.57406 4.42116)">
<stop offset="0.2479" stop-color="#FF0000"/>
<stop offset="0.8639" stop-color="#C20000"/>
</radialGradient>
<radialGradient id="paint16_radial_528_881" cx="0" cy="0" r="1" gradientUnits="userSpaceOnUse" gradientTransform="translate(13.0193 5.62279) rotate(-5.26571) scale(4.79907 3.80647)">
<stop offset="0.2479" stop-color="#FF0000"/>
<stop offset="1" stop-color="#C20000"/>
</radialGradient>
<radialGradient id="paint17_radial_528_881" cx="0" cy="0" r="1" gradientUnits="userSpaceOnUse" gradientTransform="translate(12.7536 5.87855) rotate(-5.26571) scale(5.57406 4.42116)">
<stop stop-color="white" stop-opacity="0.25"/>
<stop offset="1" stop-color="white" stop-opacity="0"/>
</radialGradient>
<radialGradient id="paint18_radial_528_881" cx="0" cy="0" r="1" gradientUnits="userSpaceOnUse" gradientTransform="translate(13.8081 8.42389) rotate(-2.1516) scale(4.06873 2.01022)">
<stop stop-color="#BD2719" stop-opacity="0.25"/>
<stop offset="1" stop-color="#BD2719" stop-opacity="0"/>
</radialGradient>
<radialGradient id="paint19_radial_528_881" cx="0" cy="0" r="1" gradientUnits="userSpaceOnUse" gradientTransform="translate(12.2181 5.15698) rotate(2.44968) scale(1.44634 0.898544)">
<stop stop-color="white"/>
<stop offset="1" stop-color="white" stop-opacity="0"/>
</radialGradient>
<radialGradient id="paint20_radial_528_881" cx="0" cy="0" r="1" gradientUnits="userSpaceOnUse" gradientTransform="translate(14.8636 6.17818) rotate(-16.6196) scale(1.1975 0.743906)">
<stop stop-color="white"/>
<stop offset="1" stop-color="white" stop-opacity="0"/>
</radialGradient>
<linearGradient id="paint21_linear_528_881" x1="11.4157" y1="13.1778" x2="15.8514" y2="4.96868" gradientUnits="userSpaceOnUse">
<stop stop-color="#860805"/>
<stop offset="1" stop-color="#BD2719" stop-opacity="0"/>
</linearGradient>
</defs>
</svg>
